<?xml version="1.0" encoding="UTF-8"?>
<svg id="Layer_2" data-name="Layer 2" xmlns="http://www.w3.org/2000/svg" xmlns:xlink="http://www.w3.org/1999/xlink" viewBox="0 0 45.58 41.92">
  <defs>
    <style>
      .cls-1 {
        fill: #3b7aff;
      }

      .cls-2, .cls-3 {
        fill: none;
      }

      .cls-3 {
        clip-path: url(#clippath);
      }
    </style>
    <clipPath id="clippath">
      <rect class="cls-2" width="45.58" height="41.92"/>
    </clipPath>
  </defs>
  <g id="landing-page">
    <g class="cls-3">
      <path class="cls-1" d="m35.35,22.2h8.26c-5.57,11.83-20.8,19.72-20.8,19.72,0,0-15.26-7.89-20.83-19.72h8.8l1.26-.89,1.97-6.99,4.83,18.63h2.71l2.86-10.76h4.66l1.26-.89,1.8-6.99,1.8,6.99,1.43.89Zm-25.46-2.69h0l2.69-10.56h2.69l4.86,18.45,1.97-6.8,1.23-1.09h4.69l2.86-10.56h2.52l2.86,10.56h8.26c.71-1.79,1.09-3.76,1.09-5.73C45.58,6.09,39.66,0,32.29,0,28.52,0,25.12,1.61,22.8,4.47,20.29,1.61,16.86,0,13.12,0,5.92,0,0,6.09,0,13.79,0,15.76.37,17.73.91,19.52h8.97Z"/>
    </g>
  </g>
</svg>